<?xml version="1.0" encoding="UTF-8"?>
<svg viewBox="0 0 100 100" xmlns="http://www.w3.org/2000/svg">
 <defs>
  <clipPath id="h">
   <path d="m32 27h27v30h-27z"/>
  </clipPath>
  <clipPath id="g">
   <path d="m88.566 27.734-60.832-16.301-16.301 60.832 60.832 16.301z"/>
  </clipPath>
  <clipPath id="f">
   <path d="m31 26h29v33h-29z"/>
  </clipPath>
  <clipPath id="e">
   <path d="m88.566 27.734-60.832-16.301-16.301 60.832 60.832 16.301z"/>
  </clipPath>
  <clipPath id="d">
   <path d="m53 57h11v15h-11z"/>
  </clipPath>
  <clipPath id="c">
   <path d="m88.566 27.734-60.832-16.301-16.301 60.832 60.832 16.301z"/>
  </clipPath>
  <clipPath id="b">
   <path d="m52 56h5v4h-5z"/>
  </clipPath>
  <clipPath id="a">
   <path d="m88.566 27.734-60.832-16.301-16.301 60.832 60.832 16.301z"/>
  </clipPath>
 </defs>
 <rect x="-10" y="-10" width="120" height="120" fill="#fff"/>
 <g clip-path="url(#h)">
  <g clip-path="url(#g)">
   <path d="m38.379 29.898 0.03125-0.019532c5.9727-3.4414 10.328-2.1797 11.836 0.44141l7.1016 12.289c1.1836 2.0508 0.93359 3.4727 0.14062 5.1055-0.92578 1.9219-1.9609 4.3281-2.3203 5.2461-0.29297 0.75-0.58984 1.8164-0.42188 2.7266l-2.1914 1.2656c-0.47266-0.39453-1.1016-0.64844-1.7109-0.8125-0.30469-0.082031-0.60547-0.14453-0.86719-0.17578-0.97656-0.14844-3.5742-0.45703-5.7031-0.61719-1.8086-0.12891-3.168-0.625-4.3516-2.6758l-7.0859-12.301c-1.5156-2.6133-0.42969-7.0156 5.543-10.473z"/>
  </g>
 </g>
 <g clip-path="url(#f)">
  <g clip-path="url(#e)">
   <path d="m37.906 29.09 0.03125-0.019532c6.5977-3.8008 11.395-2.1992 13.113 0.77344 0.92188 1.5977 6.5469 11.34 7.0938 12.285 1.4297 2.4805 0.98828 4.2695 0.17188 5.9688-0.88281 1.832-1.918 4.2383-2.2812 5.1836-0.35938 0.91797-0.58984 2.0312-0.21875 2.6602 0.039063 0.066406 0.082032 0.14453 0.082032 0.14453l-1.7617 1.0195-0.03125 0.019531-1.7617 1.0195s-0.039062-0.066406-0.082031-0.14453c-0.36719-0.64062-1.4375-0.99219-2.4141-1.1406-1-0.15625-3.6016-0.46094-5.6289-0.61328-1.8828-0.14062-3.6523-0.65234-5.0859-3.1328-0.54687-0.94922-6.1719-10.688-7.0938-12.285-1.7344-2.9688-0.71484-7.9141 5.8672-11.738zm-5.4219 11.484 7.0938 12.285c0.92188 1.5977 1.9414 2.3086 3.168 2.6367 0.46875 0.125 0.96484 0.19141 1.5 0.23438 2.1172 0.15625 4.6992 0.46875 5.6758 0.61719 0.77734 0.125 1.8438 0.39062 2.4727 0.98828l0.11328 0.10547 2.7109-1.5664-0.035156-0.14844c-0.20312-0.84766 0.089844-1.9023 0.37891-2.6367 0.35938-0.91797 1.3789-3.3008 2.3047-5.2227 0.84375-1.7578 1.1133-3.2891-0.15234-5.4805l-7.0938-12.285c-1.6094-2.7891-6.1797-4.1602-12.398-0.58203l-0.03125 0.019531c-6.2227 3.6055-7.3164 8.2461-5.707 11.035z"/>
  </g>
 </g>
 <g clip-path="url(#d)">
  <g clip-path="url(#c)">
   <path d="m60.125 71.629c1.0156-0.035156 3.0195-1.1914 3.5586-2.0547 0.11719-0.19141 0.03125-0.64453-0.042969-0.87891-0.25391-0.78516-1.4727-1.9414-1.8867-2.6562-0.78906-1.3672-4.9922-8.4453-4.9922-8.4453l-3.5586 2.0547s4.1367 7.3672 4.8164 8.5469c0.41406 0.71484 0.80469 2.3477 1.3594 2.9609 0.16406 0.17578 0.51562 0.48438 0.74609 0.47266z"/>
  </g>
 </g>
 <g clip-path="url(#b)">
  <g clip-path="url(#a)">
   <path d="m52.965 59.383 3.6797-2.125c0.078125-0.042968 0.10156-0.14062 0.058594-0.21875l-0.35156-0.60547c-0.042968-0.078125-0.14062-0.10156-0.21875-0.058594l-3.6797 2.125c-0.078125 0.042969-0.10156 0.14062-0.058594 0.21875l0.35156 0.60547c0.035156 0.074219 0.14062 0.10156 0.21875 0.058593z"/>
  </g>
 </g>
</svg>
