<?xml version="1.0" encoding="UTF-8"?>
<svg width="1200pt" height="1200pt" version="1.1" viewBox="0 0 1200 1200" xmlns="http://www.w3.org/2000/svg">
 <defs>
  <clipPath id="h">
   <path d="m373 346h328v328h-328z"/>
  </clipPath>
  <clipPath id="g">
   <path d="m65.629 600 534.37-534.37 534.37 534.37-534.37 534.37z"/>
  </clipPath>
  <clipPath id="f">
   <path d="m361 335h351v350h-351z"/>
  </clipPath>
  <clipPath id="e">
   <path d="m65.629 600 534.37-534.37 534.37 534.37-534.37 534.37z"/>
  </clipPath>
  <clipPath id="d">
   <path d="m685 659h154v153h-154z"/>
  </clipPath>
  <clipPath id="c">
   <path d="m65.629 600 534.37-534.37 534.37 534.37-534.37 534.37z"/>
  </clipPath>
  <clipPath id="b">
   <path d="m672 646h47v47h-47z"/>
  </clipPath>
  <clipPath id="a">
   <path d="m65.629 600 534.37-534.37 534.37 534.37-534.37 534.37z"/>
  </clipPath>
 </defs>
 <g clip-path="url(#h)">
  <g clip-path="url(#g)">
   <path d="m425.34 399.23 0.30469-0.30469c30.305-30.305 62.75-47.023 91.227-46.949 15.879 0 30 5.4219 39.773 15.191l120.54 120.39c18.473 18.473 19.848 33.742 16.031 53.895-4.7344 25.344-9.3125 56.492-10.609 68.324-0.45703 3.3594-0.6875 7.2539-0.6875 11.223 0 8.0938 1.0703 15.113 3.207 21.07l-16.414 16.414c-10.688-3.8164-23.285-3.5898-32.215-2.5938-11.832 1.2969-42.98 5.8789-68.477 10.609-20.152 3.8164-35.422 2.4414-53.895-16.031l-120.39-120.54c-9.7695-9.7695-15.191-23.895-15.191-39.773-0.15625-28.25 16.488-60.617 46.793-90.922m-3.8164-3.8164c-58.398 58.551-57.332 112.91-31.605 138.48l120.39 120.54c20.078 20.078 37.328 21.605 58.703 17.48 25.191-4.7344 56.262-9.2383 68.02-10.609 9.6172-1.0703 22.902-1.2227 32.902 3.5898l21.449-21.449c-3.1289-6.6406-4.1211-14.809-4.0469-22.367 0-3.8164 0.23047-7.4062 0.6875-10.609 1.2969-11.832 5.8008-42.902 10.609-68.02 4.1211-21.375 2.5938-38.629-17.48-58.703l-120.54-120.39c-25.574-25.727-80.004-26.719-138.63 31.758z"/>
  </g>
 </g>
 <g clip-path="url(#f)">
  <g clip-path="url(#e)">
   <path d="m413.96 387.09-0.30469 0.30469c-64.508 64.66-60.918 125.2-31.758 154.36 15.648 15.648 111.07 111.07 120.39 120.39 24.277 24.277 46.414 24.734 68.629 20.535 23.969-4.582 55.039-9.0859 67.18-10.383 11.832-1.2969 25.422-0.53516 31.527 5.7266l1.375 1.375 34.812-34.812-1.375-1.375c-6.2617-6.2617-7.0234-19.695-5.7266-31.527 1.2969-12.137 5.8008-43.207 10.383-67.18 4.1992-22.215 3.7422-44.352-20.535-68.629l-120.39-120.39c-29.012-29.309-89.469-32.82-154.21 31.609zm149.93-27.176 120.39 120.39c15.648 15.648 20.688 29.695 20.766 44.887 0 5.8008-0.76172 11.758-1.9844 18.168-4.7344 25.039-9.1602 55.879-10.457 67.711-0.99219 9.3906-1.2227 22.598 3.8164 31.758l0.83984 1.6016-26.566 26.566-1.6016-0.83984c-9.2383-4.9609-22.367-4.8086-31.758-3.8164-11.832 1.2969-42.52 5.7266-67.711 10.457-22.977 4.3516-41.605 2.6719-63.055-18.781l-120.39-120.38c-27.328-27.328-29.086-84.508 31.758-145.5l0.30469-0.30469c61.145-61 118.32-59.242 145.65-31.914z"/>
  </g>
 </g>
 <g clip-path="url(#d)">
  <g clip-path="url(#c)">
   <path d="m837.95 776.72c-3.5898 11.68-23.207 31.301-34.887 34.887-2.5938 0.76172-7.5586-1.6016-10.078-3.207-8.3203-5.4219-17.941-23.129-24.961-30.152-13.359-13.359-82.371-84.051-82.371-84.051l34.887-34.887s72.523 70.844 84.051 82.371c7.0234 7.0234 24.734 16.641 30.152 24.961 1.6055 2.3711 4.125 7.4844 3.207 10.078z"/>
  </g>
 </g>
 <g clip-path="url(#b)">
  <g clip-path="url(#a)">
   <path d="m718.25 655.65-36.031 36.031c-0.76172 0.76172-1.9844 0.76172-2.75 0l-5.9531-5.9531c-0.76172-0.76172-0.76172-1.9844 0-2.75l36.031-36.031c0.76172-0.76172 1.9844-0.76172 2.75 0l5.9531 5.9531c0.76172 0.76562 0.76172 1.9844 0 2.75z"/>
  </g>
 </g>
</svg>
