<?xml version="1.0" encoding="UTF-8"?>
<svg width="1200pt" height="1200pt" version="1.1" viewBox="0 0 1200 1200" xmlns="http://www.w3.org/2000/svg">
 <path d="m913.03 287.31-0.51562-0.51562c-92.91-92.738-179.31-91.027-219.94-50.227l-191.31 191.14c-31.887 31.887-34.285 59.312-27.77 93.258 7.543 39.941 14.742 89.312 16.801 108 1.7148 15.258 1.8867 36.344-5.6562 52.285l34.113 34.113c10.629-4.9727 23.484-6.5156 35.484-6.5156 6 0 11.828 0.34375 16.801 1.0273 18.688 2.0586 68.059 9.2578 108 16.801 33.941 6.5156 61.371 4.1133 93.258-27.77l191.14-191.48c40.801-40.629 42.512-127.03-50.402-220.12z"/>
 <path d="m925.71 274.8-0.51562-0.51562c-102.69-102.52-198.86-96.688-245.14-50.398-24.855 24.855-176.4 176.4-191.14 191.14-38.57 38.57-39.258 73.715-32.57 109.03 7.1992 38.059 14.398 87.43 16.457 106.63 2.0586 18.688 0.85547 40.285-9.0859 50.059-1.0273 1.0273-2.2305 2.2305-2.2305 2.2305l55.375 55.375s1.0273-1.0273 2.2305-2.2305c9.9414-9.9414 31.371-11.145 50.059-9.0859 19.199 2.0586 68.57 9.2578 106.63 16.457 35.312 6.6875 70.457 6 109.03-32.57 14.742-14.742 166.29-166.29 191.14-191.14 46.453-46.121 52.113-142.12-50.23-244.98zm43.199 238.11-191.14 191.14c-24.855 24.855-47.145 32.914-71.312 32.914-9.2578 0-18.688-1.1992-28.801-3.0859-39.77-7.543-88.801-14.57-107.48-16.629-14.914-1.543-35.828-1.8867-50.398 6l-2.5703 1.3711-42.172-42.172 1.3711-2.5703c7.8867-14.57 7.7148-35.484 6-50.398-2.0586-18.688-9.0859-67.543-16.629-107.48-6.8555-36.516-4.2852-66 29.828-100.11l191.14-191.14c43.371-43.371 134.23-46.113 231.09 50.398l0.51562 0.51562c96.68 97.027 93.938 187.88 50.566 231.25z"/>
 <path d="m307.03 948.17c-18.516-5.6562-49.715-36.855-55.371-55.371-1.1992-4.1133 2.5703-12 5.1445-15.941 8.5703-13.199 36.688-28.457 47.828-39.602 21.258-21.258 133.54-130.8 133.54-130.8l55.371 55.371s-112.46 115.2-130.8 133.54c-11.145 11.145-26.398 39.258-39.602 47.828-3.9414 2.4023-11.996 6.3438-16.113 4.9727z"/>
 <path d="m499.2 758.06-57.258-57.258c-1.1992-1.1992-1.1992-3.0859 0-4.2852l9.4297-9.4297c1.1992-1.1992 3.0859-1.1992 4.2852 0l57.258 57.258c1.1992 1.1992 1.1992 3.0859 0 4.2852l-9.4297 9.4297c-1.0273 1.1992-3.0859 1.1992-4.2852 0z"/>
</svg>
