<?xml version="1.0" encoding="UTF-8"?>
<svg width="100pt" height="100pt" version="1.1" viewBox="0 0 100 100" xmlns="http://www.w3.org/2000/svg">
 <path d="m10.312 49.5c0.15625-21.156 17.562-39.562 40.375-39.156 21.688 0.375 38.969 17.719 39 39.688 0.03125 22.312-17.781 39.875-40.375 39.656-21.781-0.21875-39.281-18.156-39-40.156zm24.75 5.5c2.7812 0 5-2.1562 5.0312-4.9375 0-2.7188-2.2188-5.0312-4.9688-5.0312s-5.0312 2.2188-5.0312 4.9688 2.2188 5 4.9688 5zm19.969-19.875c0-2.75-2.25-5-5-4.9688-2.7812 0-5 2.2188-5 5 0 2.75 2.25 5 5 5 2.7188 0 5-2.2812 5-5zm9.9688 19.875c2.75 0 5-2.25 4.9688-5 0-2.7188-2.3438-4.9688-5.0312-4.9688-2.75 0-4.9688 2.2812-4.9375 5.0312 0 2.7812 2.25 4.9375 5.0312 4.9375zm-9.9688 9.9375c0-2.75-2.2812-4.9688-5-4.9688-2.75 0-4.9688 2.2812-4.9688 5 0 2.75 2.25 4.9688 5 4.9688s4.9688-2.2812 4.9688-5zm7.0938-38.906c1.5625 0 2.75-0.40625 3.4375-1.625 0.71875-1.2188 0.4375-2.4688-0.28125-3.5938-1.2188-1.9062-3-2.9062-5.2188-3.0312-1.3125-0.0625-2.5625 0.34375-3.2812 1.5625-0.6875 1.1562-0.5 2.4062 0.15625 3.5312 1.1875 2.0312 3.0312 3 5.1562 3.1562zm0.25 47.938c-2.4375 0-4.8125 1.5625-5.6875 3.7188-0.875 2.125 0.1875 4.0312 2.4375 4.4375s4.8438-0.8125 6.125-2.9062c0.71875-1.1562 1.0312-2.375 0.3125-3.5938-0.6875-1.2188-1.875-1.6562-3.2188-1.6562zm11.625-12.156c-0.0625 3.25 2.0625 4.8125 4.5625 3.7812 2.0938-0.84375 3.7812-3.4375 3.7188-5.6875-0.09375-3.0312-2.6562-4.4688-5.25-2.875-1.9062 1.1875-2.9062 2.9375-3.0312 4.7812zm0-23.812c0.125 2.125 1.25 4.0938 3.5625 5.2188 2.1562 1.0625 4.2188-0.0625 4.625-2.4062 0.40625-2.2812-0.96875-5-3.1562-6.1875-2.5625-1.4062-5 0-5.0312 3.375zm-35.906 35.969c-3.4375 0-4.9062 2.5312-3.4062 5.0938 1.1562 1.9688 2.9688 3 5.25 3.125 1.3438 0.0625 2.625-0.34375 3.3438-1.6562 0.65625-1.2188 0.40625-2.4688-0.3125-3.5938-1.25-1.9062-3.0312-2.9062-4.875-2.9688zm-0.4375-47.938c2.3438 0 4.6875-1.5 5.6562-3.5938 0.90625-2.0312 0-3.9688-2.1562-4.5312-2.2188-0.59375-5.2188 0.8125-6.4688 3.0312-1.4688 2.5938 0 5.0938 2.9688 5.0938zm-11.594 11.875c0-1.5-0.40625-2.75-1.6875-3.4688-1.25-0.6875-2.4688-0.40625-3.5938 0.3125-2 1.2812-3 3.1875-2.9688 5.5625 0.0625 2.6875 2.4062 4.0625 4.8125 2.8438 2.1875-1.125 3.1875-3.0312 3.4375-5.2812zm0 24.531c0-2.5-1.6562-4.9688-3.875-5.7812-2.0625-0.75-3.875 0.28125-4.2812 2.4062-0.4375 2.4062 0.96875 5.2188 3.2188 6.375 2.5312 1.3125 4.9062-0.125 4.9375-3z" fill="#f6d74f"/>
</svg>
